<svg width="162" height="27" viewBox="0 0 162 27" fill="none" xmlns="http://www.w3.org/2000/svg">
<mask id="mask0_1_935" style="mask-type:luminance" maskUnits="userSpaceOnUse" x="0" y="0" width="27" height="28">
<path d="M26.9485 0.551748H0.499991V27.0003H26.9485V0.551748Z" fill="white"/>
</mask>
<g mask="url(#mask0_1_935)">
<path d="M13.7243 0.551748C11.1087 0.551748 8.55197 1.32734 6.37724 2.78044C4.20253 4.23353 2.50754 6.29889 1.50663 8.71529C0.505721 11.1317 0.243837 13.7906 0.754097 16.3559C1.26436 18.9212 2.52384 21.2775 4.37329 23.127C6.22274 24.9764 8.57907 26.2359 11.1443 26.7461C13.7096 27.2564 16.3685 26.9945 18.785 25.9936C21.2013 24.9927 23.2667 23.2977 24.7199 21.123C26.1729 18.9483 26.9485 16.3915 26.9485 13.776C26.9485 10.2687 25.5552 6.90506 23.0752 4.42504C20.5951 1.94501 17.2315 0.551748 13.7243 0.551748ZM13.7243 23.6942C11.7626 23.6942 9.84503 23.1125 8.214 22.0227C6.58296 20.9328 5.31172 19.3839 4.56104 17.5715C3.81035 15.7592 3.61393 13.765 3.99664 11.8411C4.37933 9.91712 5.32394 8.14986 6.71103 6.76278C8.09811 5.37569 9.86536 4.43108 11.7893 4.04839C13.7133 3.66569 15.7074 3.8621 17.5198 4.61279C19.332 5.36347 20.8811 6.63471 21.9709 8.26575C23.0608 9.89679 23.6425 11.8144 23.6425 13.776C23.6395 16.4056 22.5936 18.9266 20.7342 20.786C18.8749 22.6454 16.3538 23.6913 13.7243 23.6942Z" fill="#117B69"/>
<path d="M13.7243 15.9801C14.9415 15.9801 15.9283 14.9933 15.9283 13.776C15.9283 12.5588 14.9415 11.5721 13.7243 11.5721C12.507 11.5721 11.5202 12.5588 11.5202 13.776C11.5202 14.9933 12.507 15.9801 13.7243 15.9801Z" fill="#117B69"/>
<path d="M13.7243 6.06239C12.1986 6.06239 10.7071 6.51482 9.4385 7.36246C8.16991 8.2101 7.18117 9.41488 6.5973 10.8245C6.01344 12.2341 5.86068 13.7851 6.15833 15.2815C6.45597 16.7779 7.19068 18.1524 8.26952 19.2313C9.34836 20.3101 10.7229 21.0448 12.2193 21.3424C13.7157 21.6401 15.2667 21.4873 16.6763 20.9035C18.0859 20.3196 19.2907 19.3309 20.1383 18.0623C20.9859 16.7937 21.4384 15.3022 21.4384 13.7766C21.436 11.7313 20.6225 9.77056 19.1764 8.32439C17.7302 6.87822 15.7694 6.06472 13.7243 6.06239ZM13.7243 18.1846C12.8524 18.1846 12.0002 17.9261 11.2752 17.4417C10.5503 16.9574 9.98534 16.2689 9.65171 15.4634C9.31807 14.6579 9.23077 13.7717 9.40086 12.9166C9.57095 12.0615 9.99078 11.276 10.6073 10.6595C11.2237 10.0431 12.0092 9.62324 12.8643 9.45315C13.7194 9.28306 14.6056 9.37036 15.4111 9.70399C16.2166 10.0376 16.9051 10.6026 17.3894 11.3275C17.8738 12.0525 18.1324 12.9047 18.1324 13.7766C18.1324 14.9456 17.6679 16.0668 16.8412 16.8935C16.0145 17.7202 14.8933 18.1846 13.7243 18.1846Z" fill="#117B69"/>
</g>
<path d="M53.2471 21.5781H47.7722V18.4571H52.9297V15.442H47.7722V12.4533H52.9297V9.3324H47.7722V6.31727H53.2471L56.2623 8.14222V12.6649L53.7761 13.9345L56.2623 15.1247V19.7531L53.2471 21.5781ZM41.3189 16.6321V18.4571H46.4763V21.5781H41.0015L37.8805 19.7531V16.6321H41.3189ZM37.9863 11.1573V8.14222L41.0015 6.31727H46.4763V9.3324H41.3189V11.1573H37.9863ZM46.4763 15.442H43.1438V12.4533H46.4763V15.442ZM75.7533 19.7002L72.7647 21.5252H67.2898V18.4307H72.5531V15.442H67.2898V12.4269H72.7647L75.7533 14.2518V19.7002ZM72.4473 11.1573V9.30595H67.2898V6.31727H72.7647L75.7533 8.14222V11.1573H72.4473ZM57.5568 8.14222L60.5455 6.31727H66.0203V9.30595H60.8628V12.4269H66.0203V15.442H60.8628V18.4307H66.0203V21.5252H60.8628L57.5568 19.7002V8.14222ZM96.9824 8.16866V19.7267L93.9673 21.5517H88.3602V18.5365H93.6499V10.2317L88.3602 15.8388V11.2102L89.9736 9.35885H88.466V6.34372H93.6499L96.9824 8.16866ZM81.9861 17.6637L87.17 12.1624V16.7115L85.6625 18.5365H87.17V21.5517H83.4937H81.6687L78.6536 19.7267V8.16866L81.9861 6.34372H87.17V9.35885H81.9861V17.6637ZM100.408 6.34372H103.741V18.4571H108.766V21.5517H100.408V6.34372ZM110.168 18.4571V21.5517H118.632V18.4571H110.168ZM119.685 8.16866V21.5517H123.018V15.4685H128.149V12.4533H123.018V9.3324H128.149V6.34372H122.7L119.685 8.16866ZM137.908 8.16866V21.5517H134.576V15.4685H129.339V12.4533H134.576V9.3324H129.339V6.34372H134.787L137.908 8.16866ZM141.336 6.34372H149.8V9.3324H144.669V12.4533H149.8V15.4685H144.669V18.4571H149.8V21.5517H141.336V6.34372ZM159.559 19.7531V15.1247L157.073 13.9609L159.559 12.7707V8.16866L156.571 6.34372H151.096V9.3324H156.227V12.4533H151.096V15.4685H156.227V18.4571H151.096V21.5517H156.571L159.559 19.7531Z" fill="#117B69"/>
</svg>
