<svg width="20" height="20" viewBox="0 0 20 20" fill="none" xmlns="http://www.w3.org/2000/svg">
<path d="M20 10.0598C20.0004 8.14866 19.4532 6.27742 18.4231 4.66765C17.393 3.05788 15.9232 1.777 14.1877 0.976679C12.4522 0.176358 10.5237 -0.109886 8.63053 0.151839C6.73739 0.413565 4.9589 1.2123 3.50564 2.45346C2.05237 3.69463 0.985206 5.32624 0.430495 7.15511C-0.124217 8.98398 -0.143239 10.9335 0.37568 12.7729C0.894599 14.6122 1.92973 16.2643 3.35849 17.5336C4.78726 18.8029 6.54983 19.6362 8.4375 19.9348V12.9498H5.89875V10.0598H8.4375V7.85605C8.38284 7.34161 8.44199 6.82144 8.61078 6.33242C8.77957 5.84339 9.05386 5.39748 9.4142 5.02628C9.77455 4.65508 10.2121 4.36768 10.6959 4.18446C11.1797 4.00124 11.6979 3.92667 12.2137 3.96605C12.9638 3.9759 13.7121 4.04108 14.4525 4.16105V6.6248H13.1925C12.9779 6.59673 12.7597 6.61729 12.554 6.68494C12.3484 6.7526 12.1607 6.86563 12.0046 7.01566C11.8486 7.16569 11.7283 7.34889 11.6526 7.55169C11.577 7.7545 11.5479 7.97173 11.5675 8.1873V10.0623H14.3412L13.8975 12.9523H11.5625V19.941C13.9153 19.5689 16.058 18.369 17.6048 16.5575C19.1516 14.746 20.001 12.4419 20 10.0598Z" fill="#131413"/>
</svg>
