<svg width="21" height="20" viewBox="0 0 21 20" fill="none" xmlns="http://www.w3.org/2000/svg">
<path d="M10 1.80125C12.67 1.80125 12.9862 1.8125 14.0413 1.86C14.6752 1.86762 15.3031 1.98432 15.8975 2.205C16.3322 2.3656 16.7253 2.62192 17.0475 2.955C17.3806 3.27724 17.6369 3.67027 17.7975 4.105C18.0182 4.69937 18.1349 5.32729 18.1425 5.96125C18.19 7.01625 18.2013 7.33625 18.2013 10.0025C18.2013 12.6687 18.19 12.9887 18.1425 14.0437C18.1349 14.6777 18.0182 15.3056 17.7975 15.9C17.6315 16.3314 17.3768 16.7232 17.05 17.05C16.7232 17.3768 16.3314 17.6315 15.9 17.7975C15.3056 18.0182 14.6777 18.1349 14.0437 18.1425C12.9887 18.19 12.6687 18.2013 10.0025 18.2013C7.33625 18.2013 7.01625 18.19 5.96125 18.1425C5.32729 18.1349 4.69937 18.0182 4.105 17.7975C3.67027 17.6369 3.27724 17.3806 2.955 17.0475C2.62192 16.7253 2.3656 16.3322 2.205 15.8975C1.98432 15.3031 1.86762 14.6752 1.86 14.0413C1.8125 12.9862 1.80125 12.6663 1.80125 10C1.80125 7.33375 1.8125 7.01375 1.86 5.95875C1.86762 5.32479 1.98432 4.69687 2.205 4.1025C2.3656 3.66777 2.62192 3.27474 2.955 2.9525C3.27724 2.61942 3.67027 2.3631 4.105 2.2025C4.69937 1.98182 5.32729 1.86512 5.96125 1.8575C7.01625 1.81 7.33625 1.79875 10.0025 1.79875M10 0C7.28375 0 6.94375 0.01125 5.875 0.06C5.0462 0.0768543 4.22625 0.234082 3.45 0.525C2.78245 0.775698 2.17788 1.1695 1.67875 1.67875C1.1695 2.17788 0.775698 2.78245 0.525 3.45C0.234082 4.22625 0.0768543 5.0462 0.06 5.875C0.01125 6.94375 0 7.28375 0 10C0 12.7163 0.01125 13.0563 0.06 14.125C0.0768543 14.9538 0.234082 15.7738 0.525 16.55C0.775698 17.2175 1.1695 17.8221 1.67875 18.3212C2.17788 18.8305 2.78245 19.2243 3.45 19.475C4.22704 19.7662 5.04786 19.9234 5.8775 19.94C6.94375 19.9888 7.28375 20 10 20C12.7163 20 13.0563 19.9888 14.125 19.94C14.9546 19.9234 15.7755 19.7662 16.5525 19.475C17.2168 19.2179 17.82 18.8249 18.3237 18.3212C18.8274 17.8175 19.2204 17.2143 19.4775 16.55C19.7687 15.773 19.9259 14.9521 19.9425 14.1225C19.9913 13.0563 20.0025 12.7163 20.0025 9.9975C20.0025 7.27875 19.9913 6.94125 19.9425 5.8725C19.9246 5.0444 19.7665 4.22531 19.475 3.45C19.2243 2.78245 18.8305 2.17788 18.3212 1.67875C17.8221 1.1695 17.2175 0.775698 16.55 0.525C15.7738 0.234082 14.9538 0.0768543 14.125 0.06C13.0563 0.01125 12.7163 0 10 0Z" fill="#131413"/>
<path d="M10 4.86523C8.98439 4.86523 7.99159 5.1664 7.14715 5.73064C6.3027 6.29488 5.64453 7.09686 5.25588 8.03516C4.86722 8.97345 4.76553 10.0059 4.96367 11.002C5.1618 11.9981 5.65086 12.9131 6.36901 13.6312C7.08715 14.3494 8.00212 14.8384 8.99821 15.0366C9.9943 15.2347 11.0268 15.133 11.9651 14.7444C12.9034 14.3557 13.7054 13.6975 14.2696 12.8531C14.8338 12.0086 15.135 11.0158 15.135 10.0002C15.135 9.3259 15.0022 8.65816 14.7441 8.03516C14.4861 7.41215 14.1078 6.84607 13.631 6.36924C13.1542 5.89241 12.5881 5.51417 11.9651 5.25611C11.3421 4.99806 10.6743 4.86523 10 4.86523ZM10 13.334C9.34065 13.334 8.6961 13.1385 8.14787 12.7721C7.59964 12.4058 7.17234 11.8852 6.92002 11.276C6.66769 10.6668 6.60167 9.99654 6.73031 9.34985C6.85894 8.70317 7.17645 8.10915 7.64268 7.64292C8.10892 7.17668 8.70293 6.85918 9.34962 6.73054C9.9963 6.60191 10.6666 6.66793 11.2758 6.92025C11.8849 7.17257 12.4056 7.59987 12.7719 8.1481C13.1382 8.69633 13.3337 9.34088 13.3337 10.0002C13.3337 10.8844 12.9825 11.7324 12.3573 12.3576C11.7321 12.9828 10.8842 13.334 10 13.334Z" fill="#131413"/>
<path d="M15.3375 5.86289C16.0002 5.86289 16.5375 5.32563 16.5375 4.66289C16.5375 4.00015 16.0002 3.46289 15.3375 3.46289C14.6748 3.46289 14.1375 4.00015 14.1375 4.66289C14.1375 5.32563 14.6748 5.86289 15.3375 5.86289Z" fill="#131413"/>
</svg>
